# xmcd CD database file
#
# Track frame offsets:
#	150
#	18255
#	42184
#	63577
#	87772
#	112230
#	140980
#	157443
#	174275
#	205642
#	222249
#	239437
#	259502
#	278057
#	296346
#	319526
#	340141
#
# Disc length: 4735 seconds
#
# Revision: 0
# Processed by: cddbd v1.5.2PL0 Copyright (c) Steve Scherf et al.
# Submitted via: CDex 1.51
#
DISCID=fd127d11
DTITLE=就是爵士9.10 - 爵士集錦
DYEAR=2010
DGENRE=Jazz
TTITLE0=the very though of you
TTITLE1=02
TTITLE2=fools of the hill
TTITLE3=will you still love me tomorrow
TTITLE4=05
TTITLE5=I'll wait for you
TTITLE6=07
TTITLE7=08
TTITLE8=09
TTITLE9=10
TTITLE10=11
TTITLE11=12
TTITLE12=covedo
TTITLE13=14
TTITLE14=15
TTITLE15=16
TTITLE16=17
EXTD=YEAR: 2010
EXTT0=
EXTT1=
EXTT2=
EXTT3=
EXTT4=
EXTT5=
EXTT6=
EXTT7=
EXTT8=
EXTT9=
EXTT10=
EXTT11=
EXTT12=
EXTT13=
EXTT14=
EXTT15=
EXTT16=
PLAYORDER=
